<svg width="210" height="191" viewBox="0 0 210 191" fill="none" xmlns="http://www.w3.org/2000/svg">
<ellipse cx="73.2032" cy="40.446" rx="24.4931" ry="35.0919" transform="rotate(-12.9524 73.2032 40.446)" fill="#FDE4A6"/>
<ellipse cx="33.6952" cy="96.607" rx="22.1736" ry="32.2799" transform="rotate(-24.8764 33.6952 96.607)" fill="#FDE4A6"/>
<ellipse cx="135.877" cy="39.6402" rx="25.2278" ry="35.0919" transform="rotate(12.2318 135.877 39.6402)" fill="#FDE4A6"/>
<ellipse cx="176.552" cy="92.3306" rx="23.0698" ry="33.276" transform="rotate(20.2512 176.552 92.3306)" fill="#FDE4A6"/>
<path d="M103.5 101.006C64.7 102.206 49 145.5 45.5 169.506C47 192 65 191.673 73.5 188.506C89.5 182.106 86.5 183.5 102.5 179C110 176.891 132.333 183.673 143 188.506C166.6 197.306 170.5 178.5 170.5 168.5C154.9 112.9 120 100.673 103.5 101.006Z" fill="#FDE4A6"/>
</svg>
